<?xml version="1.0" encoding="utf-8"?>
<!-- Generator: Adobe Illustrator 23.0.3, SVG Export Plug-In . SVG Version: 6.00 Build 0)  -->
<svg version="1.1" xmlns="http://www.w3.org/2000/svg" xmlns:xlink="http://www.w3.org/1999/xlink" x="0px" y="0px"
	 viewBox="0 0 104.9 55.1" style="enable-background:new 0 0 104.9 55.1;" xml:space="preserve">
<style type="text/css">
	.st0{opacity:0.79;fill:#FFFFFF;enable-background:new    ;}
</style>
<g id="Layer_1">
</g>
<g id="Layer_2">
	<g>
		<path class="st0" d="M5.2,49.5v-2.2c0,0,3.1,0.1,4.1-1.7c1-1.8,2.5-5.1,2.5-5.1l12-27.6L27.2,5h1l16.2,38.2c0.5,1.2,1.2,2.2,2.2,3
			c0.9,0.7,2.1,1.3,3.5,1.2h0.2v2.1H31.7v-2l2.7-0.1c1.1,0,2.1-0.6,2.6-1.5c0,0,0,0,0-0.1c0.5-1,0.5-2.3,0.1-3.3l-1.8-4.9l-7.2-18
			l-1.7-4.2l-3.1,7.1l-8.8,19.9c0,0-1.5,2.8,0.3,4.2c0,0,0.6,0.6,2.3,0.6h1.8v2.2L5.2,49.5z"/>
		<path class="st0" d="M44.2,35.5L38,21.1V9.9c0,0,0.3-2.6-5.9-2.6V5.9l20.2,0.3c2.1,0,4.1,0.4,6,1.2c1.9,0.8,4,2.2,5.4,4.4
			c0,0,2.3,2.5,1.1,8.6c0,0-0.6,6.8-9.9,7.8l8.2,11.2c0,0,3.2,3.8,5.2,5.9c0,0,2.2,2.4,7.7,1.5c0,0,7.2-0.3,10.5-4.8
			c0,0,3.4-3.9,4.2-9.7c0,0,1.5-7.1-0.7-12.6c0,0-1.9-7.4-12-9.5c0,0-2.6-0.9-10.1-1.1l0.1,4.9c0,0-2.8-6.4-5.5-8.2L77.4,6
			c0.3,0,0.5,0,0.8,0c1.4,0,7.4,0.1,12.3,4.1c0,0,5.7,4.1,7.3,10.6c0.2,0.7,0.3,1.5,0.4,2.2c0.3,2.6,0.6,8.6-1.3,13.3
			c0,0-2.3,6.6-7.6,9.6c0,0-3.4,2.4-7.6,3.2H62.8L46.8,27c0,0,5.7-1.3,8-2.4c0,0,3.6-1.3,3.2-8.2c0,0,0-3.6-3-5.7
			c0,0-3.9-3.5-10.8-1.4V35.5z"/>
	</g>
</g>
</svg>
