<svg xmlns="http://www.w3.org/2000/svg" width="27.671" height="25.365" viewBox="0 0 27.671 25.365">
  <g id="noun_Telegram_1634539" transform="translate(0 0)">
    <path id="Path_6" data-name="Path 6" d="M35.651,13.616,11.077,23.843s-1.162.422-1.072,1.2,1.04,1.137,1.04,1.137l6.183,2.207s1.866,6.493,2.234,7.729.662,1.261.662,1.261a.666.666,0,0,0,.653-.093l4-3.863L31,38.487a1.6,1.6,0,0,0,2.3-.844l4.375-23.409C37.671,12.674,35.651,13.616,35.651,13.616ZM31.3,35.76l-6.661-5.417-2.067,2,.454-4.251,8.879-8.415L19.8,26.861l-5.369-1.916,20.482-8.525Z" transform="translate(-10 -13.334)" fill="#fff"/>
  </g>
</svg>
